# MagicaVoxel @ Ephtracy

# group
o 

# material
mtllib 1d3.mtl
usemtl palette

# normals
vn -1 0 0
vn 1 0 0
vn 0 0 1
vn 0 0 -1
vn 0 -1 0
vn 0 1 0

# texcoords
vt 0.541016 0.5
vt 0.544922 0.5
vt 0.638672 0.5
vt 0.830078 0.5

# verts
v -4.3 6.4 2.1
v -4.3 6.4 1.4
v -4.3 6.4 -2.5
v -4.3 6.4 -3.2
v -4.3 9.8 2.3
v -4.3 9.8 2.1
v -4.3 9.8 1.4
v -4.3 9.8 -2.5
v -4.3 9.8 -3.2
v -4.3 9.8 -3.4
v -4.3 10.2 2.3
v -4.3 10.2 2.1
v -4.3 10.2 1.4
v -4.3 10.2 -2.5
v -4.3 10.2 -3.2
v -4.3 10.2 -3.4
v -4.3 14.7 2.3
v -4.3 14.7 2.1
v -4.3 14.7 1.4
v -4.3 14.7 -2.5
v -4.3 14.7 -3.2
v -4.3 14.7 -3.4
v -4.3 15.1 2.3
v -4.3 15.1 2.1
v -4.3 15.1 1.4
v -4.3 15.1 -2.5
v -4.3 15.1 -3.2
v -4.3 15.1 -3.4
v -4.3 17.9 2.5
v -4.3 17.9 2.1
v -4.3 17.9 1.4
v -4.3 17.9 -2.5
v -4.3 17.9 -3.2
v -4.3 17.9 -3.6
v -4.3 18.2 2.5
v -4.3 18.2 2.1
v -4.3 18.2 1.4
v -4.3 18.2 -2.5
v -4.3 18.2 -3.2
v -4.3 18.2 -3.6
v -4.3 19.2 2.1
v -4.3 19.2 1.4
v -4.3 19.2 -2.5
v -4.3 19.2 -3.2
v -3.5 10.2 1.4
v -3.5 10.2 -1.5
v -3.5 12.4 1.4
v -3.5 12.4 -1.5
v -2.1 15.1 0.5
v -2.1 15.1 -1.3
v -2.1 16.3 0.5
v -2.1 16.3 -1.3
v -0.9 10.2 -1.5
v -0.9 10.2 -3.2
v -0.9 11.9 -1.5
v -0.9 11.9 -3.2
v -0.3 10.2 2.1
v -0.3 10.2 -0.3
v -0.3 11.6 2.1
v -0.3 11.6 -0.3
v 0.2 18.2 -1.5
v 0.2 18.2 -2.9
v 0.2 19.1 -1.5
v 0.2 19.1 -2.9
v 0.6 15.1 -2.2
v 0.6 15.1 -3.3
v 0.6 16 -2.2
v 0.6 16 -3.3
v 1.5 10.2 -0.5
v 1.5 10.2 -2.6
v 1.5 11.4 -0.5
v 1.5 11.4 -2.6
v 2.1 15.1 0.2
v 2.1 15.1 -1.9
v 2.1 16.7 0.2
v 2.1 16.7 -1.9
v 3.6 6.4 2.1
v 3.6 6.4 1.4
v 3.6 6.4 -2.5
v 3.6 6.4 -3.2
v 3.6 9.8 2.1
v 3.6 9.8 1.4
v 3.6 9.8 -2.5
v 3.6 9.8 -3.2
v 3.6 10.2 2.1
v 3.6 10.2 1.4
v 3.6 10.2 -2.5
v 3.6 10.2 -3.2
v 3.6 14.7 2.1
v 3.6 14.7 1.4
v 3.6 14.7 -2.5
v 3.6 14.7 -3.2
v 3.6 15.1 2.1
v 3.6 15.1 1.4
v 3.6 15.1 -2.5
v 3.6 15.1 -3.2
v 3.6 17.9 2.1
v 3.6 17.9 1.4
v 3.6 17.9 -2.5
v 3.6 17.9 -3.2
v 3.6 18.2 2.1
v 3.6 18.2 1.4
v 3.6 18.2 -2.5
v 3.6 18.2 -3.2
v 3.6 19.2 2.1
v 3.6 19.2 1.4
v 3.6 19.2 -2.5
v 3.6 19.2 -3.2
v -3.6 6.4 2.1
v -3.6 6.4 1.4
v -3.6 6.4 -2.5
v -3.6 6.4 -3.2
v -3.6 9.8 2.1
v -3.6 9.8 1.4
v -3.6 9.8 -2.5
v -3.6 9.8 -3.2
v -3.6 10.2 2.1
v -3.6 10.2 1.4
v -3.6 10.2 -2.5
v -3.6 10.2 -3.2
v -3.6 14.7 2.1
v -3.6 14.7 1.4
v -3.6 14.7 -2.5
v -3.6 14.7 -3.2
v -3.6 15.1 2.1
v -3.6 15.1 1.4
v -3.6 15.1 -2.5
v -3.6 15.1 -3.2
v -3.6 17.9 2.1
v -3.6 17.9 1.4
v -3.6 17.9 -2.5
v -3.6 17.9 -3.2
v -3.6 18.2 2.1
v -3.6 18.2 1.4
v -3.6 18.2 -2.5
v -3.6 18.2 -3.2
v -3.6 19.2 2.1
v -3.6 19.2 1.4
v -3.6 19.2 -2.5
v -3.6 19.2 -3.2
v -1.1 10.2 1.4
v -1.1 10.2 -1.5
v -1.1 12.4 1.4
v -1.1 12.4 -1.5
v -0.7 15.1 0.5
v -0.7 15.1 -1.3
v -0.7 16.3 0.5
v -0.7 16.3 -1.3
v 1.3 10.2 -1.5
v 1.3 10.2 -3.2
v 1.3 11.9 -1.5
v 1.3 11.9 -3.2
v 1.5 10.2 2.1
v 1.5 10.2 -0.3
v 1.5 11.6 2.1
v 1.5 11.6 -0.3
v 1.5 18.2 -1.5
v 1.5 18.2 -2.9
v 1.5 19.1 -1.5
v 1.5 19.1 -2.9
v 1.8 15.1 -2.2
v 1.8 15.1 -3.3
v 1.8 16 -2.2
v 1.8 16 -3.3
v 3.2 10.2 -0.5
v 3.2 10.2 -2.6
v 3.2 11.4 -0.5
v 3.2 11.4 -2.6
v 3.7 15.1 0.2
v 3.7 15.1 -1.9
v 3.7 16.7 0.2
v 3.7 16.7 -1.9
v 4.3 6.4 2.1
v 4.3 6.4 1.4
v 4.3 6.4 -2.5
v 4.3 6.4 -3.2
v 4.3 9.8 2.3
v 4.3 9.8 2.1
v 4.3 9.8 1.4
v 4.3 9.8 -2.5
v 4.3 9.8 -3.2
v 4.3 9.8 -3.4
v 4.3 10.2 2.3
v 4.3 10.2 2.1
v 4.3 10.2 1.4
v 4.3 10.2 -2.5
v 4.3 10.2 -3.2
v 4.3 10.2 -3.4
v 4.3 14.7 2.3
v 4.3 14.7 2.1
v 4.3 14.7 1.4
v 4.3 14.7 -2.5
v 4.3 14.7 -3.2
v 4.3 14.7 -3.4
v 4.3 15.1 2.3
v 4.3 15.1 2.1
v 4.3 15.1 1.4
v 4.3 15.1 -2.5
v 4.3 15.1 -3.2
v 4.3 15.1 -3.4
v 4.3 17.9 2.5
v 4.3 17.9 2.1
v 4.3 17.9 1.4
v 4.3 17.9 -2.5
v 4.3 17.9 -3.2
v 4.3 17.9 -3.6
v 4.3 18.2 2.5
v 4.3 18.2 2.1
v 4.3 18.2 1.4
v 4.3 18.2 -2.5
v 4.3 18.2 -3.2
v 4.3 18.2 -3.6
v 4.3 19.2 2.1
v 4.3 19.2 1.4
v 4.3 19.2 -2.5
v 4.3 19.2 -3.2
v -4.3 17.9 2.5
v -4.3 18.2 2.5
v 4.3 17.9 2.5
v 4.3 18.2 2.5
v -4.3 9.8 2.3
v -4.3 10.2 2.3
v -4.3 14.7 2.3
v -4.3 15.1 2.3
v 4.3 9.8 2.3
v 4.3 10.2 2.3
v 4.3 14.7 2.3
v 4.3 15.1 2.3
v -4.3 6.4 2.1
v -4.3 9.8 2.1
v -4.3 10.2 2.1
v -4.3 14.7 2.1
v -4.3 15.1 2.1
v -4.3 17.9 2.1
v -4.3 18.2 2.1
v -4.3 19.2 2.1
v -3.6 6.4 2.1
v -3.6 9.8 2.1
v -3.6 10.2 2.1
v -3.6 14.7 2.1
v -3.6 15.1 2.1
v -3.6 17.9 2.1
v -3.6 18.2 2.1
v -3.6 19.2 2.1
v -0.3 10.2 2.1
v -0.3 11.6 2.1
v 1.5 10.2 2.1
v 1.5 11.6 2.1
v 3.6 6.4 2.1
v 3.6 9.8 2.1
v 3.6 10.2 2.1
v 3.6 14.7 2.1
v 3.6 15.1 2.1
v 3.6 17.9 2.1
v 3.6 18.2 2.1
v 3.6 19.2 2.1
v 4.3 6.4 2.1
v 4.3 9.8 2.1
v 4.3 10.2 2.1
v 4.3 14.7 2.1
v 4.3 15.1 2.1
v 4.3 17.9 2.1
v 4.3 18.2 2.1
v 4.3 19.2 2.1
v -3.5 10.2 1.4
v -3.5 12.4 1.4
v -1.1 10.2 1.4
v -1.1 12.4 1.4
v -2.1 15.1 0.5
v -2.1 16.3 0.5
v -0.7 15.1 0.5
v -0.7 16.3 0.5
v 2.1 15.1 0.2
v 2.1 16.7 0.2
v 3.7 15.1 0.2
v 3.7 16.7 0.2
v 1.5 10.2 -0.5
v 1.5 11.4 -0.5
v 3.2 10.2 -0.5
v 3.2 11.4 -0.5
v -0.9 10.2 -1.5
v -0.9 11.9 -1.5
v 0.2 18.2 -1.5
v 0.2 19.1 -1.5
v 1.3 10.2 -1.5
v 1.3 11.9 -1.5
v 1.5 18.2 -1.5
v 1.5 19.1 -1.5
v 0.6 15.1 -2.2
v 0.6 16 -2.2
v 1.8 15.1 -2.2
v 1.8 16 -2.2
v -4.3 6.4 -2.5
v -4.3 9.8 -2.5
v -4.3 10.2 -2.5
v -4.3 14.7 -2.5
v -4.3 15.1 -2.5
v -4.3 17.9 -2.5
v -4.3 18.2 -2.5
v -4.3 19.2 -2.5
v -3.6 6.4 -2.5
v -3.6 9.8 -2.5
v -3.6 10.2 -2.5
v -3.6 14.7 -2.5
v -3.6 15.1 -2.5
v -3.6 17.9 -2.5
v -3.6 18.2 -2.5
v -3.6 19.2 -2.5
v 3.6 6.4 -2.5
v 3.6 9.8 -2.5
v 3.6 10.2 -2.5
v 3.6 14.7 -2.5
v 3.6 15.1 -2.5
v 3.6 17.9 -2.5
v 3.6 18.2 -2.5
v 3.6 19.2 -2.5
v 4.3 6.4 -2.5
v 4.3 9.8 -2.5
v 4.3 10.2 -2.5
v 4.3 14.7 -2.5
v 4.3 15.1 -2.5
v 4.3 17.9 -2.5
v 4.3 18.2 -2.5
v 4.3 19.2 -2.5
v -4.3 6.4 1.4
v -4.3 9.8 1.4
v -4.3 10.2 1.4
v -4.3 14.7 1.4
v -4.3 15.1 1.4
v -4.3 17.9 1.4
v -4.3 18.2 1.4
v -4.3 19.2 1.4
v -3.6 6.4 1.4
v -3.6 9.8 1.4
v -3.6 10.2 1.4
v -3.6 14.7 1.4
v -3.6 15.1 1.4
v -3.6 17.9 1.4
v -3.6 18.2 1.4
v -3.6 19.2 1.4
v 3.6 6.4 1.4
v 3.6 9.8 1.4
v 3.6 10.2 1.4
v 3.6 14.7 1.4
v 3.6 15.1 1.4
v 3.6 17.9 1.4
v 3.6 18.2 1.4
v 3.6 19.2 1.4
v 4.3 6.4 1.4
v 4.3 9.8 1.4
v 4.3 10.2 1.4
v 4.3 14.7 1.4
v 4.3 15.1 1.4
v 4.3 17.9 1.4
v 4.3 18.2 1.4
v 4.3 19.2 1.4
v -0.3 10.2 -0.3
v -0.3 11.6 -0.3
v 1.5 10.2 -0.3
v 1.5 11.6 -0.3
v -2.1 15.1 -1.3
v -2.1 16.3 -1.3
v -0.7 15.1 -1.3
v -0.7 16.3 -1.3
v -3.5 10.2 -1.5
v -3.5 12.4 -1.5
v -1.1 10.2 -1.5
v -1.1 12.4 -1.5
v 2.1 15.1 -1.9
v 2.1 16.7 -1.9
v 3.7 15.1 -1.9
v 3.7 16.7 -1.9
v 1.5 10.2 -2.6
v 1.5 11.4 -2.6
v 3.2 10.2 -2.6
v 3.2 11.4 -2.6
v 0.2 18.2 -2.9
v 0.2 19.1 -2.9
v 1.5 18.2 -2.9
v 1.5 19.1 -2.9
v -4.3 6.4 -3.2
v -4.3 9.8 -3.2
v -4.3 10.2 -3.2
v -4.3 14.7 -3.2
v -4.3 15.1 -3.2
v -4.3 17.9 -3.2
v -4.3 18.2 -3.2
v -4.3 19.2 -3.2
v -3.6 6.4 -3.2
v -3.6 9.8 -3.2
v -3.6 10.2 -3.2
v -3.6 14.7 -3.2
v -3.6 15.1 -3.2
v -3.6 17.9 -3.2
v -3.6 18.2 -3.2
v -3.6 19.2 -3.2
v -0.9 10.2 -3.2
v -0.9 11.9 -3.2
v 1.3 10.2 -3.2
v 1.3 11.9 -3.2
v 3.6 6.4 -3.2
v 3.6 9.8 -3.2
v 3.6 10.2 -3.2
v 3.6 14.7 -3.2
v 3.6 15.1 -3.2
v 3.6 17.9 -3.2
v 3.6 18.2 -3.2
v 3.6 19.2 -3.2
v 4.3 6.4 -3.2
v 4.3 9.8 -3.2
v 4.3 10.2 -3.2
v 4.3 14.7 -3.2
v 4.3 15.1 -3.2
v 4.3 17.9 -3.2
v 4.3 18.2 -3.2
v 4.3 19.2 -3.2
v 0.6 15.1 -3.3
v 0.6 16 -3.3
v 1.8 15.1 -3.3
v 1.8 16 -3.3
v -4.3 9.8 -3.4
v -4.3 10.2 -3.4
v -4.3 14.7 -3.4
v -4.3 15.1 -3.4
v 4.3 9.8 -3.4
v 4.3 10.2 -3.4
v 4.3 14.7 -3.4
v 4.3 15.1 -3.4
v -4.3 17.9 -3.6
v -4.3 18.2 -3.6
v 4.3 17.9 -3.6
v 4.3 18.2 -3.6
v -4.3 6.4 2.1
v -3.6 6.4 2.1
v 3.6 6.4 2.1
v 4.3 6.4 2.1
v -4.3 6.4 1.4
v -3.6 6.4 1.4
v 3.6 6.4 1.4
v 4.3 6.4 1.4
v -4.3 6.4 -2.5
v -3.6 6.4 -2.5
v 3.6 6.4 -2.5
v 4.3 6.4 -2.5
v -4.3 6.4 -3.2
v -3.6 6.4 -3.2
v 3.6 6.4 -3.2
v 4.3 6.4 -3.2
v -4.3 9.8 2.3
v 4.3 9.8 2.3
v -4.3 9.8 2.1
v -3.6 9.8 2.1
v 3.6 9.8 2.1
v 4.3 9.8 2.1
v -4.3 9.8 1.4
v -3.6 9.8 1.4
v 3.6 9.8 1.4
v 4.3 9.8 1.4
v -4.3 9.8 -2.5
v -3.6 9.8 -2.5
v 3.6 9.8 -2.5
v 4.3 9.8 -2.5
v -4.3 9.8 -3.2
v -3.6 9.8 -3.2
v 3.6 9.8 -3.2
v 4.3 9.8 -3.2
v -4.3 9.8 -3.4
v 4.3 9.8 -3.4
v -4.3 14.7 2.3
v 4.3 14.7 2.3
v -4.3 14.7 2.1
v -3.6 14.7 2.1
v 3.6 14.7 2.1
v 4.3 14.7 2.1
v -4.3 14.7 1.4
v -3.6 14.7 1.4
v 3.6 14.7 1.4
v 4.3 14.7 1.4
v -4.3 14.7 -2.5
v -3.6 14.7 -2.5
v 3.6 14.7 -2.5
v 4.3 14.7 -2.5
v -4.3 14.7 -3.2
v -3.6 14.7 -3.2
v 3.6 14.7 -3.2
v 4.3 14.7 -3.2
v -4.3 14.7 -3.4
v 4.3 14.7 -3.4
v -4.3 17.9 2.5
v 4.3 17.9 2.5
v -4.3 17.9 2.1
v -3.6 17.9 2.1
v 3.6 17.9 2.1
v 4.3 17.9 2.1
v -4.3 17.9 1.4
v -3.6 17.9 1.4
v 3.6 17.9 1.4
v 4.3 17.9 1.4
v -4.3 17.9 -2.5
v -3.6 17.9 -2.5
v 3.6 17.9 -2.5
v 4.3 17.9 -2.5
v -4.3 17.9 -3.2
v -3.6 17.9 -3.2
v 3.6 17.9 -3.2
v 4.3 17.9 -3.2
v -4.3 17.9 -3.6
v 4.3 17.9 -3.6
v -4.3 10.2 2.3
v 4.3 10.2 2.3
v -4.3 10.2 2.1
v -3.6 10.2 2.1
v -0.3 10.2 2.1
v 1.5 10.2 2.1
v 3.6 10.2 2.1
v 4.3 10.2 2.1
v -4.3 10.2 1.4
v -3.6 10.2 1.4
v -3.5 10.2 1.4
v -1.1 10.2 1.4
v 3.6 10.2 1.4
v 4.3 10.2 1.4
v -0.3 10.2 -0.3
v 1.5 10.2 -0.3
v 1.5 10.2 -0.5
v 3.2 10.2 -0.5
v -3.5 10.2 -1.5
v -1.1 10.2 -1.5
v -0.9 10.2 -1.5
v 1.3 10.2 -1.5
v -4.3 10.2 -2.5
v -3.6 10.2 -2.5
v 3.6 10.2 -2.5
v 4.3 10.2 -2.5
v 1.5 10.2 -2.6
v 3.2 10.2 -2.6
v -4.3 10.2 -3.2
v -3.6 10.2 -3.2
v -0.9 10.2 -3.2
v 1.3 10.2 -3.2
v 3.6 10.2 -3.2
v 4.3 10.2 -3.2
v -4.3 10.2 -3.4
v 4.3 10.2 -3.4
v 1.5 11.4 -0.5
v 3.2 11.4 -0.5
v 1.5 11.4 -2.6
v 3.2 11.4 -2.6
v -0.3 11.6 2.1
v 1.5 11.6 2.1
v -0.3 11.6 -0.3
v 1.5 11.6 -0.3
v -0.9 11.9 -1.5
v 1.3 11.9 -1.5
v -0.9 11.9 -3.2
v 1.3 11.9 -3.2
v -3.5 12.4 1.4
v -1.1 12.4 1.4
v -3.5 12.4 -1.5
v -1.1 12.4 -1.5
v -4.3 15.1 2.3
v 4.3 15.1 2.3
v -4.3 15.1 2.1
v -3.6 15.1 2.1
v 3.6 15.1 2.1
v 4.3 15.1 2.1
v -4.3 15.1 1.4
v -3.6 15.1 1.4
v 3.6 15.1 1.4
v 4.3 15.1 1.4
v -2.1 15.1 0.5
v -0.7 15.1 0.5
v 2.1 15.1 0.2
v 3.7 15.1 0.2
v -2.1 15.1 -1.3
v -0.7 15.1 -1.3
v 2.1 15.1 -1.9
v 3.7 15.1 -1.9
v 0.6 15.1 -2.2
v 1.8 15.1 -2.2
v -4.3 15.1 -2.5
v -3.6 15.1 -2.5
v 3.6 15.1 -2.5
v 4.3 15.1 -2.5
v -4.3 15.1 -3.2
v -3.6 15.1 -3.2
v 3.6 15.1 -3.2
v 4.3 15.1 -3.2
v 0.6 15.1 -3.3
v 1.8 15.1 -3.3
v -4.3 15.1 -3.4
v 4.3 15.1 -3.4
v 0.6 16 -2.2
v 1.8 16 -2.2
v 0.6 16 -3.3
v 1.8 16 -3.3
v -2.1 16.3 0.5
v -0.7 16.3 0.5
v -2.1 16.3 -1.3
v -0.7 16.3 -1.3
v 2.1 16.7 0.2
v 3.7 16.7 0.2
v 2.1 16.7 -1.9
v 3.7 16.7 -1.9
v -4.3 18.2 2.5
v 4.3 18.2 2.5
v -4.3 18.2 2.1
v -3.6 18.2 2.1
v 3.6 18.2 2.1
v 4.3 18.2 2.1
v -4.3 18.2 1.4
v -3.6 18.2 1.4
v 3.6 18.2 1.4
v 4.3 18.2 1.4
v 0.2 18.2 -1.5
v 1.5 18.2 -1.5
v -4.3 18.2 -2.5
v -3.6 18.2 -2.5
v 3.6 18.2 -2.5
v 4.3 18.2 -2.5
v 0.2 18.2 -2.9
v 1.5 18.2 -2.9
v -4.3 18.2 -3.2
v -3.6 18.2 -3.2
v 3.6 18.2 -3.2
v 4.3 18.2 -3.2
v -4.3 18.2 -3.6
v 4.3 18.2 -3.6
v 0.2 19.1 -1.5
v 1.5 19.1 -1.5
v 0.2 19.1 -2.9
v 1.5 19.1 -2.9
v -4.3 19.2 2.1
v -3.6 19.2 2.1
v 3.6 19.2 2.1
v 4.3 19.2 2.1
v -4.3 19.2 1.4
v -3.6 19.2 1.4
v 3.6 19.2 1.4
v 4.3 19.2 1.4
v -4.3 19.2 -2.5
v -3.6 19.2 -2.5
v 3.6 19.2 -2.5
v 4.3 19.2 -2.5
v -4.3 19.2 -3.2
v -3.6 19.2 -3.2
v 3.6 19.2 -3.2
v 4.3 19.2 -3.2

# faces
f 6/2/1 2/2/1 1/2/1
f 7/2/1 2/2/1 6/2/1
f 8/2/1 4/2/1 3/2/1
f 9/2/1 4/2/1 8/2/1
f 11/1/1 6/1/1 5/1/1
f 12/2/1 7/2/1 6/2/1
f 12/1/1 6/1/1 11/1/1
f 13/1/1 8/1/1 7/1/1
f 13/2/1 7/2/1 12/2/1
f 14/2/1 9/2/1 8/2/1
f 14/1/1 8/1/1 13/1/1
f 15/1/1 10/1/1 9/1/1
f 15/2/1 9/2/1 14/2/1
f 16/1/1 10/1/1 15/1/1
f 18/2/1 13/2/1 12/2/1
f 19/2/1 13/2/1 18/2/1
f 20/2/1 15/2/1 14/2/1
f 21/2/1 15/2/1 20/2/1
f 23/1/1 18/1/1 17/1/1
f 24/2/1 19/2/1 18/2/1
f 24/1/1 18/1/1 23/1/1
f 25/1/1 20/1/1 19/1/1
f 25/2/1 19/2/1 24/2/1
f 26/2/1 21/2/1 20/2/1
f 26/1/1 20/1/1 25/1/1
f 27/1/1 22/1/1 21/1/1
f 27/2/1 21/2/1 26/2/1
f 28/1/1 22/1/1 27/1/1
f 30/2/1 25/2/1 24/2/1
f 31/2/1 25/2/1 30/2/1
f 32/2/1 27/2/1 26/2/1
f 33/2/1 27/2/1 32/2/1
f 35/1/1 30/1/1 29/1/1
f 36/2/1 31/2/1 30/2/1
f 36/1/1 30/1/1 35/1/1
f 37/1/1 32/1/1 31/1/1
f 37/2/1 31/2/1 36/2/1
f 38/2/1 33/2/1 32/2/1
f 38/1/1 32/1/1 37/1/1
f 39/1/1 34/1/1 33/1/1
f 39/2/1 33/2/1 38/2/1
f 40/1/1 34/1/1 39/1/1
f 41/2/1 37/2/1 36/2/1
f 42/2/1 37/2/1 41/2/1
f 43/2/1 39/2/1 38/2/1
f 44/2/1 39/2/1 43/2/1
f 47/4/1 46/4/1 45/4/1
f 48/4/1 46/4/1 47/4/1
f 51/3/1 50/3/1 49/3/1
f 52/3/1 50/3/1 51/3/1
f 55/4/1 54/4/1 53/4/1
f 56/4/1 54/4/1 55/4/1
f 59/3/1 58/3/1 57/3/1
f 60/3/1 58/3/1 59/3/1
f 63/4/1 62/4/1 61/4/1
f 64/4/1 62/4/1 63/4/1
f 67/3/1 66/3/1 65/3/1
f 68/3/1 66/3/1 67/3/1
f 71/4/1 70/4/1 69/4/1
f 72/4/1 70/4/1 71/4/1
f 75/4/1 74/4/1 73/4/1
f 76/4/1 74/4/1 75/4/1
f 81/2/1 78/2/1 77/2/1
f 82/2/1 78/2/1 81/2/1
f 83/2/1 80/2/1 79/2/1
f 84/2/1 80/2/1 83/2/1
f 89/2/1 86/2/1 85/2/1
f 90/2/1 86/2/1 89/2/1
f 91/2/1 88/2/1 87/2/1
f 92/2/1 88/2/1 91/2/1
f 97/2/1 94/2/1 93/2/1
f 98/2/1 94/2/1 97/2/1
f 99/2/1 96/2/1 95/2/1
f 100/2/1 96/2/1 99/2/1
f 105/2/1 102/2/1 101/2/1
f 106/2/1 102/2/1 105/2/1
f 107/2/1 104/2/1 103/2/1
f 108/2/1 104/2/1 107/2/1
f 109/2/2 110/2/2 113/2/2
f 113/2/2 110/2/2 114/2/2
f 111/2/2 112/2/2 115/2/2
f 115/2/2 112/2/2 116/2/2
f 117/2/2 118/2/2 121/2/2
f 121/2/2 118/2/2 122/2/2
f 119/2/2 120/2/2 123/2/2
f 123/2/2 120/2/2 124/2/2
f 125/2/2 126/2/2 129/2/2
f 129/2/2 126/2/2 130/2/2
f 127/2/2 128/2/2 131/2/2
f 131/2/2 128/2/2 132/2/2
f 133/2/2 134/2/2 137/2/2
f 137/2/2 134/2/2 138/2/2
f 135/2/2 136/2/2 139/2/2
f 139/2/2 136/2/2 140/2/2
f 141/4/2 142/4/2 143/4/2
f 143/4/2 142/4/2 144/4/2
f 145/3/2 146/3/2 147/3/2
f 147/3/2 146/3/2 148/3/2
f 149/4/2 150/4/2 151/4/2
f 151/4/2 150/4/2 152/4/2
f 153/3/2 154/3/2 155/3/2
f 155/3/2 154/3/2 156/3/2
f 157/4/2 158/4/2 159/4/2
f 159/4/2 158/4/2 160/4/2
f 161/3/2 162/3/2 163/3/2
f 163/3/2 162/3/2 164/3/2
f 165/4/2 166/4/2 167/4/2
f 167/4/2 166/4/2 168/4/2
f 169/4/2 170/4/2 171/4/2
f 171/4/2 170/4/2 172/4/2
f 173/2/2 174/2/2 178/2/2
f 178/2/2 174/2/2 179/2/2
f 175/2/2 176/2/2 180/2/2
f 180/2/2 176/2/2 181/2/2
f 177/1/2 178/1/2 183/1/2
f 178/2/2 179/2/2 184/2/2
f 183/1/2 178/1/2 184/1/2
f 179/1/2 180/1/2 185/1/2
f 184/2/2 179/2/2 185/2/2
f 180/2/2 181/2/2 186/2/2
f 185/1/2 180/1/2 186/1/2
f 181/1/2 182/1/2 187/1/2
f 186/2/2 181/2/2 187/2/2
f 187/1/2 182/1/2 188/1/2
f 184/2/2 185/2/2 190/2/2
f 190/2/2 185/2/2 191/2/2
f 186/2/2 187/2/2 192/2/2
f 192/2/2 187/2/2 193/2/2
f 189/1/2 190/1/2 195/1/2
f 190/2/2 191/2/2 196/2/2
f 195/1/2 190/1/2 196/1/2
f 191/1/2 192/1/2 197/1/2
f 196/2/2 191/2/2 197/2/2
f 192/2/2 193/2/2 198/2/2
f 197/1/2 192/1/2 198/1/2
f 193/1/2 194/1/2 199/1/2
f 198/2/2 193/2/2 199/2/2
f 199/1/2 194/1/2 200/1/2
f 196/2/2 197/2/2 202/2/2
f 202/2/2 197/2/2 203/2/2
f 198/2/2 199/2/2 204/2/2
f 204/2/2 199/2/2 205/2/2
f 201/1/2 202/1/2 207/1/2
f 202/2/2 203/2/2 208/2/2
f 207/1/2 202/1/2 208/1/2
f 203/1/2 204/1/2 209/1/2
f 208/2/2 203/2/2 209/2/2
f 204/2/2 205/2/2 210/2/2
f 209/1/2 204/1/2 210/1/2
f 205/1/2 206/1/2 211/1/2
f 210/2/2 205/2/2 211/2/2
f 211/1/2 206/1/2 212/1/2
f 208/2/2 209/2/2 213/2/2
f 213/2/2 209/2/2 214/2/2
f 210/2/2 211/2/2 215/2/2
f 215/2/2 211/2/2 216/2/2
f 219/1/3 218/1/3 217/1/3
f 220/1/3 218/1/3 219/1/3
f 225/1/3 222/1/3 221/1/3
f 226/1/3 222/1/3 225/1/3
f 227/1/3 224/1/3 223/1/3
f 228/1/3 224/1/3 227/1/3
f 237/2/3 230/2/3 229/2/3
f 238/2/3 230/2/3 237/2/3
f 239/2/3 232/2/3 231/2/3
f 240/2/3 232/2/3 239/2/3
f 241/2/3 234/2/3 233/2/3
f 242/2/3 234/2/3 241/2/3
f 243/2/3 236/2/3 235/2/3
f 244/2/3 236/2/3 243/2/3
f 247/3/3 246/3/3 245/3/3
f 248/3/3 246/3/3 247/3/3
f 257/2/3 250/2/3 249/2/3
f 258/2/3 250/2/3 257/2/3
f 259/2/3 252/2/3 251/2/3
f 260/2/3 252/2/3 259/2/3
f 261/2/3 254/2/3 253/2/3
f 262/2/3 254/2/3 261/2/3
f 263/2/3 256/2/3 255/2/3
f 264/2/3 256/2/3 263/2/3
f 267/4/3 266/4/3 265/4/3
f 268/4/3 266/4/3 267/4/3
f 271/3/3 270/3/3 269/3/3
f 272/3/3 270/3/3 271/3/3
f 275/4/3 274/4/3 273/4/3
f 276/4/3 274/4/3 275/4/3
f 279/4/3 278/4/3 277/4/3
f 280/4/3 278/4/3 279/4/3
f 285/4/3 282/4/3 281/4/3
f 286/4/3 282/4/3 285/4/3
f 287/4/3 284/4/3 283/4/3
f 288/4/3 284/4/3 287/4/3
f 291/3/3 290/3/3 289/3/3
f 292/3/3 290/3/3 291/3/3
f 301/2/3 294/2/3 293/2/3
f 302/2/3 294/2/3 301/2/3
f 303/2/3 296/2/3 295/2/3
f 304/2/3 296/2/3 303/2/3
f 305/2/3 298/2/3 297/2/3
f 306/2/3 298/2/3 305/2/3
f 307/2/3 300/2/3 299/2/3
f 308/2/3 300/2/3 307/2/3
f 317/2/3 310/2/3 309/2/3
f 318/2/3 310/2/3 317/2/3
f 319/2/3 312/2/3 311/2/3
f 320/2/3 312/2/3 319/2/3
f 321/2/3 314/2/3 313/2/3
f 322/2/3 314/2/3 321/2/3
f 323/2/3 316/2/3 315/2/3
f 324/2/3 316/2/3 323/2/3
f 325/2/4 326/2/4 333/2/4
f 333/2/4 326/2/4 334/2/4
f 327/2/4 328/2/4 335/2/4
f 335/2/4 328/2/4 336/2/4
f 329/2/4 330/2/4 337/2/4
f 337/2/4 330/2/4 338/2/4
f 331/2/4 332/2/4 339/2/4
f 339/2/4 332/2/4 340/2/4
f 341/2/4 342/2/4 349/2/4
f 349/2/4 342/2/4 350/2/4
f 343/2/4 344/2/4 351/2/4
f 351/2/4 344/2/4 352/2/4
f 345/2/4 346/2/4 353/2/4
f 353/2/4 346/2/4 354/2/4
f 347/2/4 348/2/4 355/2/4
f 355/2/4 348/2/4 356/2/4
f 357/3/4 358/3/4 359/3/4
f 359/3/4 358/3/4 360/3/4
f 361/3/4 362/3/4 363/3/4
f 363/3/4 362/3/4 364/3/4
f 365/4/4 366/4/4 367/4/4
f 367/4/4 366/4/4 368/4/4
f 369/4/4 370/4/4 371/4/4
f 371/4/4 370/4/4 372/4/4
f 373/4/4 374/4/4 375/4/4
f 375/4/4 374/4/4 376/4/4
f 377/4/4 378/4/4 379/4/4
f 379/4/4 378/4/4 380/4/4
f 381/2/4 382/2/4 389/2/4
f 389/2/4 382/2/4 390/2/4
f 383/2/4 384/2/4 391/2/4
f 391/2/4 384/2/4 392/2/4
f 385/2/4 386/2/4 393/2/4
f 393/2/4 386/2/4 394/2/4
f 387/2/4 388/2/4 395/2/4
f 395/2/4 388/2/4 396/2/4
f 397/4/4 398/4/4 399/4/4
f 399/4/4 398/4/4 400/4/4
f 401/2/4 402/2/4 409/2/4
f 409/2/4 402/2/4 410/2/4
f 403/2/4 404/2/4 411/2/4
f 411/2/4 404/2/4 412/2/4
f 405/2/4 406/2/4 413/2/4
f 413/2/4 406/2/4 414/2/4
f 407/2/4 408/2/4 415/2/4
f 415/2/4 408/2/4 416/2/4
f 417/3/4 418/3/4 419/3/4
f 419/3/4 418/3/4 420/3/4
f 421/1/4 422/1/4 425/1/4
f 425/1/4 422/1/4 426/1/4
f 423/1/4 424/1/4 427/1/4
f 427/1/4 424/1/4 428/1/4
f 429/1/4 430/1/4 431/1/4
f 431/1/4 430/1/4 432/1/4
f 437/2/5 434/2/5 433/2/5
f 438/2/5 434/2/5 437/2/5
f 439/2/5 436/2/5 435/2/5
f 440/2/5 436/2/5 439/2/5
f 445/2/5 442/2/5 441/2/5
f 446/2/5 442/2/5 445/2/5
f 447/2/5 444/2/5 443/2/5
f 448/2/5 444/2/5 447/2/5
f 451/1/5 450/1/5 449/1/5
f 452/1/5 450/1/5 451/1/5
f 453/1/5 450/1/5 452/1/5
f 454/1/5 450/1/5 453/1/5
f 456/1/5 453/1/5 452/1/5
f 457/1/5 453/1/5 456/1/5
f 459/1/5 456/1/5 455/1/5
f 459/1/5 458/1/5 457/1/5
f 459/1/5 457/1/5 456/1/5
f 460/1/5 458/1/5 459/1/5
f 461/1/5 458/1/5 460/1/5
f 462/1/5 458/1/5 461/1/5
f 464/1/5 461/1/5 460/1/5
f 465/1/5 461/1/5 464/1/5
f 467/1/5 464/1/5 463/1/5
f 467/1/5 466/1/5 465/1/5
f 467/1/5 465/1/5 464/1/5
f 468/1/5 466/1/5 467/1/5
f 471/1/5 470/1/5 469/1/5
f 472/1/5 470/1/5 471/1/5
f 473/1/5 470/1/5 472/1/5
f 474/1/5 470/1/5 473/1/5
f 476/1/5 473/1/5 472/1/5
f 477/1/5 473/1/5 476/1/5
f 479/1/5 476/1/5 475/1/5
f 479/1/5 478/1/5 477/1/5
f 479/1/5 477/1/5 476/1/5
f 480/1/5 478/1/5 479/1/5
f 481/1/5 478/1/5 480/1/5
f 482/1/5 478/1/5 481/1/5
f 484/1/5 481/1/5 480/1/5
f 485/1/5 481/1/5 484/1/5
f 487/1/5 484/1/5 483/1/5
f 487/1/5 486/1/5 485/1/5
f 487/1/5 485/1/5 484/1/5
f 488/1/5 486/1/5 487/1/5
f 491/1/5 490/1/5 489/1/5
f 492/1/5 490/1/5 491/1/5
f 493/1/5 490/1/5 492/1/5
f 494/1/5 490/1/5 493/1/5
f 496/1/5 493/1/5 492/1/5
f 497/1/5 493/1/5 496/1/5
f 499/1/5 496/1/5 495/1/5
f 499/1/5 498/1/5 497/1/5
f 499/1/5 497/1/5 496/1/5
f 500/1/5 498/1/5 499/1/5
f 501/1/5 498/1/5 500/1/5
f 502/1/5 498/1/5 501/1/5
f 504/1/5 501/1/5 500/1/5
f 505/1/5 501/1/5 504/1/5
f 507/1/5 504/1/5 503/1/5
f 507/1/5 506/1/5 505/1/5
f 507/1/5 505/1/5 504/1/5
f 508/1/5 506/1/5 507/1/5
f 509/1/6 510/1/6 511/1/6
f 511/1/6 510/1/6 512/1/6
f 512/1/6 510/1/6 513/1/6
f 513/1/6 510/1/6 514/1/6
f 514/1/6 510/1/6 515/1/6
f 515/1/6 510/1/6 516/1/6
f 512/1/6 513/1/6 518/1/6
f 518/1/6 513/1/6 519/1/6
f 519/1/6 513/1/6 520/1/6
f 514/1/6 515/1/6 521/1/6
f 520/1/6 513/1/6 523/1/6
f 521/1/6 522/1/6 524/1/6
f 514/1/6 521/1/6 524/1/6
f 524/1/6 522/1/6 525/1/6
f 523/1/6 524/1/6 525/1/6
f 525/1/6 522/1/6 526/1/6
f 517/1/6 518/1/6 527/1/6
f 518/1/6 519/1/6 527/1/6
f 520/1/6 523/1/6 528/1/6
f 523/1/6 525/1/6 528/1/6
f 528/1/6 525/1/6 529/1/6
f 529/1/6 525/1/6 530/1/6
f 517/1/6 527/1/6 531/1/6
f 527/1/6 528/1/6 531/1/6
f 528/1/6 529/1/6 531/1/6
f 531/1/6 529/1/6 532/1/6
f 526/1/6 522/1/6 533/1/6
f 533/1/6 522/1/6 534/1/6
f 530/1/6 525/1/6 535/1/6
f 526/1/6 533/1/6 536/1/6
f 532/1/6 529/1/6 538/1/6
f 538/1/6 529/1/6 539/1/6
f 535/1/6 536/1/6 540/1/6
f 530/1/6 535/1/6 540/1/6
f 536/1/6 533/1/6 541/1/6
f 540/1/6 536/1/6 541/1/6
f 538/1/6 539/1/6 543/1/6
f 541/1/6 542/1/6 543/1/6
f 540/1/6 541/1/6 543/1/6
f 537/1/6 538/1/6 543/1/6
f 539/1/6 540/1/6 543/1/6
f 543/1/6 542/1/6 544/1/6
f 545/4/6 546/4/6 547/4/6
f 547/4/6 546/4/6 548/4/6
f 549/3/6 550/3/6 551/3/6
f 551/3/6 550/3/6 552/3/6
f 553/4/6 554/4/6 555/4/6
f 555/4/6 554/4/6 556/4/6
f 557/4/6 558/4/6 559/4/6
f 559/4/6 558/4/6 560/4/6
f 561/1/6 562/1/6 563/1/6
f 563/1/6 562/1/6 564/1/6
f 564/1/6 562/1/6 565/1/6
f 565/1/6 562/1/6 566/1/6
f 564/1/6 565/1/6 568/1/6
f 568/1/6 565/1/6 569/1/6
f 567/1/6 568/1/6 571/1/6
f 569/1/6 570/1/6 571/1/6
f 568/1/6 569/1/6 571/1/6
f 571/1/6 570/1/6 572/1/6
f 572/1/6 570/1/6 573/1/6
f 573/1/6 570/1/6 574/1/6
f 567/1/6 571/1/6 575/1/6
f 572/1/6 573/1/6 576/1/6
f 576/1/6 573/1/6 577/1/6
f 575/1/6 576/1/6 577/1/6
f 574/1/6 570/1/6 578/1/6
f 575/1/6 577/1/6 579/1/6
f 577/1/6 578/1/6 579/1/6
f 579/1/6 578/1/6 580/1/6
f 567/1/6 575/1/6 581/1/6
f 575/1/6 579/1/6 581/1/6
f 581/1/6 579/1/6 582/1/6
f 580/1/6 578/1/6 583/1/6
f 578/1/6 570/1/6 584/1/6
f 583/1/6 578/1/6 584/1/6
f 582/1/6 579/1/6 586/1/6
f 580/1/6 583/1/6 587/1/6
f 585/1/6 586/1/6 589/1/6
f 586/1/6 579/1/6 589/1/6
f 587/1/6 588/1/6 590/1/6
f 580/1/6 587/1/6 590/1/6
f 585/1/6 589/1/6 591/1/6
f 589/1/6 590/1/6 591/1/6
f 590/1/6 588/1/6 592/1/6
f 591/1/6 590/1/6 592/1/6
f 593/3/6 594/3/6 595/3/6
f 595/3/6 594/3/6 596/3/6
f 597/3/6 598/3/6 599/3/6
f 599/3/6 598/3/6 600/3/6
f 601/4/6 602/4/6 603/4/6
f 603/4/6 602/4/6 604/4/6
f 605/1/6 606/1/6 607/1/6
f 607/1/6 606/1/6 608/1/6
f 608/1/6 606/1/6 609/1/6
f 609/1/6 606/1/6 610/1/6
f 608/1/6 609/1/6 612/1/6
f 612/1/6 609/1/6 613/1/6
f 611/1/6 612/1/6 615/1/6
f 613/1/6 614/1/6 615/1/6
f 612/1/6 613/1/6 615/1/6
f 615/1/6 614/1/6 616/1/6
f 611/1/6 615/1/6 617/1/6
f 617/1/6 615/1/6 618/1/6
f 616/1/6 614/1/6 619/1/6
f 619/1/6 614/1/6 620/1/6
f 618/1/6 615/1/6 621/1/6
f 616/1/6 619/1/6 622/1/6
f 618/1/6 621/1/6 624/1/6
f 621/1/6 622/1/6 624/1/6
f 622/1/6 619/1/6 625/1/6
f 624/1/6 622/1/6 625/1/6
f 623/1/6 624/1/6 627/1/6
f 625/1/6 626/1/6 627/1/6
f 624/1/6 625/1/6 627/1/6
f 627/1/6 626/1/6 628/1/6
f 629/4/6 630/4/6 631/4/6
f 631/4/6 630/4/6 632/4/6
f 633/2/6 634/2/6 637/2/6
f 637/2/6 634/2/6 638/2/6
f 635/2/6 636/2/6 639/2/6
f 639/2/6 636/2/6 640/2/6
f 641/2/6 642/2/6 645/2/6
f 645/2/6 642/2/6 646/2/6
f 643/2/6 644/2/6 647/2/6
f 647/2/6 644/2/6 648/2/6
